<?xml version="1.0" standalone="no"?>
<!DOCTYPE svg PUBLIC "-//W3C//DTD SVG 20010904//EN"
 "http://www.w3.org/TR/2001/REC-SVG-20010904/DTD/svg10.dtd">
<svg version="1.0" xmlns="http://www.w3.org/2000/svg"
 width="1024.000000pt" height="1024.000000pt" viewBox="0 0 1024.000000 1024.000000"
 preserveAspectRatio="xMidYMid meet">

<g transform="translate(0.000000,1024.000000) scale(0.100000,-0.100000)"
fill="#000000" stroke="none">
<path d="M3240 5599 l0 -2530 33 23 c17 12 145 113 282 223 1009 810 1067 860
1159 999 66 99 88 142 115 226 52 157 51 120 51 1918 l0 1672 -300 0 -300 0
-3 -1662 -3 -1663 -27 -120 c-51 -231 -111 -377 -208 -517 -47 -67 -137 -169
-180 -205 -12 -10 -14 280 -13 2078 l0 2089 -303 0 -303 0 0 -2531z"/>
<path d="M5347 6288 l-3 -1843 -26 -106 c-45 -180 -107 -295 -230 -425 -45
-47 -336 -288 -748 -617 -371 -297 -677 -542 -680 -544 -7 -7 27 -31 294 -204
207 -135 251 -160 266 -151 20 12 271 212 654 520 148 119 350 281 449 359
268 213 392 318 493 415 l91 88 610 0 611 0 6 23 c3 12 6 145 6 295 l0 272
-595 0 -595 0 0 1880 0 1880 -300 0 -299 0 -4 -1842z"/>
<path d="M6370 7260 l0 -870 380 0 380 0 0 115 0 115 -260 0 -260 0 0 755 0
755 -120 0 -120 0 0 -870z"/>
<path d="M6420 3350 c-201 -14 -221 -26 -805 -495 -379 -305 -800 -641 -845
-675 -25 -18 -57 -45 -72 -58 l-28 -25 58 -42 c32 -24 94 -65 138 -92 43 -28
138 -89 211 -137 72 -47 134 -86 137 -86 4 0 241 187 527 416 287 229 551 438
588 464 86 63 146 97 436 246 132 68 269 139 305 157 l65 34 0 149 0 149 -305
1 c-168 1 -352 -2 -410 -6z"/>
</g>
</svg>
